<?xml version="1.0" encoding="UTF-8"?>
<svg id="Layer_1" data-name="Layer 1" xmlns="http://www.w3.org/2000/svg" version="1.1" viewBox="0 0 184.39 105.95">
  <defs>
    <style>
      .cls-1 {
        fill: #fff;
        stroke-width: 0px;
      }
    </style>
  </defs>
  <path class="cls-1" d="M1.18.18l3.55.02-.17,5.33L1.18.18ZM4.46.2l6.29.04,41.26,72.28h-.68S96.31.74,96.31.74l4.92.03-.62,104.42-8.2-.05.58-99.09,3.43-2.58-47.47,75.85h-2.46S4.43,5.53,4.43,5.53l1.64-.54-.59,99.64h-1.64S4.46.2,4.46.2Z"/>
  <path class="cls-1" d="M105.46.8l9.7.06,66.28,93.88,1.17,10.94h-2.6S105.46.8,105.46.8ZM109.56.82h1.64M181.59,1.25h1.64s-.62,104.43-.62,104.43h-1.64s.62-104.43.62-104.43h0Z"/>
</svg>